<svg version="1.0" xmlns="http://www.w3.org/2000/svg"
 width="2000" height="2000" viewBox="0 0 500 500"
 preserveAspectRatio="xMidYMid meet">

<g transform="translate(0.000000,500.000000) scale(0.100000,-0.100000)" stroke="none">
<path d="M4440 3560 c-19 -19 -20 -33 -20 -333 0 -230 -3 -316 -12 -325 -9 -9
-111 -12 -398 -12 -443 0 -420 5 -420 -88 0 -71 -14 -82 -105 -82 -93 0 -105
-10 -105 -89 0 -31 -5 -62 -12 -69 -7 -7 -42 -12 -85 -12 -122 0 -113 43 -113
-513 0 -411 2 -475 16 -495 13 -19 24 -22 93 -22 46 0 82 -5 89 -12 7 -7 12
-36 12 -65 0 -77 19 -93 113 -93 43 0 78 -5 85 -12 7 -7 12 -38 12 -69 0 -94
-25 -89 414 -89 291 0 386 3 398 13 11 8 17 33 20 75 3 41 10 67 19 73 8 5 46
9 85 9 88 0 104 13 104 88 0 71 14 82 105 82 54 0 78 4 89 16 14 14 16 120 16
1014 l0 999 -22 15 c-18 13 -55 16 -190 16 -155 0 -170 -2 -188 -20z m-39
-1020 c18 -10 19 -27 19 -505 0 -478 -1 -495 -19 -505 -13 -6 -156 -10 -397
-10 -337 0 -379 2 -396 17 -17 15 -18 44 -18 496 0 433 2 482 17 499 15 17 41
18 395 18 242 0 386 -4 399 -10z"/>
<path d="M598 2879 c-14 -7 -18 -23 -18 -62 0 -83 -15 -97 -109 -97 -46 0 -82
-5 -89 -12 -7 -7 -12 -38 -12 -69 0 -79 -12 -89 -104 -89 -58 0 -76 -4 -89
-18 -15 -17 -17 -78 -17 -670 0 -578 2 -652 16 -666 13 -13 45 -16 194 -16
173 0 179 1 194 22 14 20 16 101 16 675 0 635 1 653 19 663 13 6 157 10 399
10 354 0 380 -1 395 -18 15 -17 17 -78 17 -670 0 -578 2 -652 16 -666 13 -13
45 -16 194 -16 173 0 179 1 194 22 14 20 16 101 16 675 0 635 1 653 19 663 13
6 156 10 395 10 363 0 377 -1 396 -20 20 -20 20 -33 20 -675 0 -637 1 -655 19
-665 26 -13 346 -13 372 0 18 10 19 28 19 675 0 763 12 685 -107 685 -40 0
-74 5 -81 12 -7 7 -12 35 -12 63 0 30 -6 60 -16 73 -13 19 -24 22 -93 22 -46
0 -82 5 -89 12 -7 7 -12 35 -12 63 0 30 -6 60 -16 73 l-15 22 -383 0 c-305 0
-386 -3 -401 -14 -13 -9 -19 -30 -23 -72 -2 -32 -9 -65 -14 -71 -14 -18 -369
-18 -386 -1 -7 7 -12 37 -12 68 0 95 23 90 -416 90 -239 0 -385 -4 -396 -11z"/>
</g>
<style>
        path {
            fill: #000;
        }
        @media (prefers-color-scheme: dark) {
            path {
                fill: #fff;
            }
        }
    </style>
</svg>